<?xml version="1.0" encoding="UTF-8"?>
<svg xmlns="http://www.w3.org/2000/svg" width="1254" height="1254" viewBox="0 0 1254 1254" role="img" aria-labelledby="title desc">
  <title id="title">Vectorized SVG from quoted image</title>
  <desc id="desc">Auto-vectorized dark logo mark from the quoted raster image; transparent background.</desc>
  <path fill="#050505" fill-rule="evenodd" d="
    M 273 174 L 234 478 L 211 638 L 192 790 L 177 894 L 167 978 L 152 1078 L 151 1093 L 239 1037 L 349 970 L 386 664 L 410 694 L 536 863 L 626 989 L 628 989 L 730 847 L 866 665 L 902 970 L 978 1015 L 1104 1093 L 1105 1092 L 1076 894 L 1041 630 L 1015 448 L 980 174 L 946 218 L 627 654 L 368 300 Z
    M 289 233 L 358 325 L 539 574 L 627 692 L 962 235 L 964 233 L 965 234 L 982 367 L 885 492 L 684 759 L 684 874 L 627 952 L 570 874 L 569 758 L 373 498 L 271 367 Z
    M 986 398 L 1007 554 L 1010 568 L 1010 576 L 1018 625 L 1022 662 L 1025 676 L 1030 720 L 1032 727 L 1056 910 L 1075 1038 L 1075 1049 L 1019 1015 L 1016 1009 L 980 741 L 977 710 L 965 628 L 952 519 L 930 545 L 857 640 L 707 841 L 706 840 L 706 767 L 883 532 Z
    M 267 399 L 269 401 L 268 403 L 269 402 L 274 407 L 358 516 L 548 768 L 548 840 L 547 841 L 432 687 L 305 521 L 302 519 L 287 636 L 276 707 L 237 1011 L 231 1017 L 180 1048 L 180 1036 L 191 961 L 195 922 L 206 849 L 217 760 L 222 732 L 233 643 L 252 516 Z
    M 935 575 L 937 579 L 968 822 L 992 989 L 991 997 L 922 956 L 922 947 L 901 778 L 886 638 Z
    M 318 575 L 366 637 L 362 681 L 341 847 L 330 950 L 328 958 L 262 997 L 261 991 L 277 869 L 284 825 L 316 578 Z
  "/>
</svg>
