<?xml version="1.0" encoding="UTF-8"?>
<svg xmlns="http://www.w3.org/2000/svg" width="1254" height="1254" viewBox="0 0 1254 1254" role="img" aria-labelledby="title desc">
  <title id="title">Mer3y Sense M line mark</title>
  <desc id="desc">A refined translucent architectural line mark shaped as the letter M for Mer3y Sense.</desc>
  <defs>
    <linearGradient id="mer3yLine" x1="164" y1="120" x2="1090" y2="1088" gradientUnits="userSpaceOnUse">
      <stop offset="0" stop-color="#ead9dc" stop-opacity="0.96"/>
      <stop offset="0.48" stop-color="#dcc0c6" stop-opacity="0.86"/>
      <stop offset="1" stop-color="#cfadb6" stop-opacity="0.92"/>
    </linearGradient>
    <linearGradient id="mer3yLineSheen" x1="270" y1="120" x2="970" y2="1050" gradientUnits="userSpaceOnUse">
      <stop offset="0" stop-color="#fff8f8" stop-opacity="0.56"/>
      <stop offset="0.42" stop-color="#ead3d8" stop-opacity="0.16"/>
      <stop offset="1" stop-color="#b98d99" stop-opacity="0.26"/>
    </linearGradient>
    <filter id="paperShadow" x="-12%" y="-12%" width="124%" height="124%">
      <feDropShadow dx="0" dy="18" stdDeviation="14" flood-color="#7b5961" flood-opacity="0.10"/>
      <feDropShadow dx="0" dy="0" stdDeviation="2" flood-color="#ffffff" flood-opacity="0.42"/>
    </filter>
  </defs>
  <g fill="none" stroke-linecap="round" stroke-linejoin="round" filter="url(#paperShadow)">
    <path d="M166 1044 C244 808 335 514 430 176 C451 101 497 96 536 170 L627 342 L718 170 C757 96 803 101 824 176 C919 514 1010 808 1088 1044" stroke="url(#mer3yLine)" stroke-width="38" opacity="0.82"/>
    <path d="M248 1044 C314 828 391 574 470 282 C486 224 514 220 543 276 L627 462 L711 276 C740 220 768 224 784 282 C863 574 940 828 1006 1044" stroke="url(#mer3yLine)" stroke-width="38" opacity="0.82"/>
    <path d="M330 1044 C386 852 450 638 514 402 C527 356 546 354 568 402 L627 556 L686 402 C708 354 727 356 740 402 C804 638 868 852 924 1044" stroke="url(#mer3yLine)" stroke-width="38" opacity="0.82"/>
    <path d="M412 1044 C462 876 517 704 566 532 L627 672 L688 532 C737 704 792 876 842 1044" stroke="url(#mer3yLine)" stroke-width="38" opacity="0.82"/>
    <path d="M206 1044 C302 812 422 724 548 628 C602 587 625 536 627 490" stroke="url(#mer3yLine)" stroke-width="38" opacity="0.82"/>
    <path d="M1048 1044 C952 812 832 724 706 628 C652 587 629 536 627 490" stroke="url(#mer3yLine)" stroke-width="38" opacity="0.82"/>
    <path d="M166 1044 C244 808 335 514 430 176 C451 101 497 96 536 170 L627 342 L718 170 C757 96 803 101 824 176 C919 514 1010 808 1088 1044" stroke="url(#mer3yLineSheen)" stroke-width="14" opacity="0.42"/>
    <path d="M248 1044 C314 828 391 574 470 282 C486 224 514 220 543 276 L627 462 L711 276 C740 220 768 224 784 282 C863 574 940 828 1006 1044" stroke="url(#mer3yLineSheen)" stroke-width="14" opacity="0.42"/>
    <path d="M330 1044 C386 852 450 638 514 402 C527 356 546 354 568 402 L627 556 L686 402 C708 354 727 356 740 402 C804 638 868 852 924 1044" stroke="url(#mer3yLineSheen)" stroke-width="14" opacity="0.42"/>
    <path d="M412 1044 C462 876 517 704 566 532 L627 672 L688 532 C737 704 792 876 842 1044" stroke="url(#mer3yLineSheen)" stroke-width="14" opacity="0.42"/>
    <path d="M206 1044 C302 812 422 724 548 628 C602 587 625 536 627 490" stroke="url(#mer3yLineSheen)" stroke-width="14" opacity="0.42"/>
    <path d="M1048 1044 C952 812 832 724 706 628 C652 587 629 536 627 490" stroke="url(#mer3yLineSheen)" stroke-width="14" opacity="0.42"/>
  </g>
</svg>
